<svg width="910" height="872" viewBox="0 0 910 872" fill="none" xmlns="http://www.w3.org/2000/svg">
<g id="score-meter">
<g id="meter">
<path id="Ellipse 11" d="M807 478.62C807 677.719 645.599 839.12 446.5 839.12C247.401 839.12 86 677.719 86 478.62C86 279.522 247.401 118.12 446.5 118.12C645.599 118.12 807 279.522 807 478.62Z" fill="#EDEDED"/>
<path id="Subtract" fill-rule="evenodd" clip-rule="evenodd" d="M799.91 550.12C804.56 527.01 807 503.1 807 478.62C807 279.522 645.599 118.12 446.5 118.12C247.401 118.12 86 279.522 86 478.62C86 503.1 88.44 527.01 93.09 550.12H799.91Z" fill="#C1D6E9"/>
<g id="Ellipse 1" filter="url(#filter0_d_9_2)">
<path d="M744 478.62C744 642.925 610.805 776.12 446.5 776.12C282.195 776.12 149 642.925 149 478.62C149 314.315 282.195 181.12 446.5 181.12C610.805 181.12 744 314.315 744 478.62Z" fill="white"/>
</g>
<circle id="Ellipse 6" cx="446.5" cy="478.62" r="261.5" stroke="#7000FF" stroke-width="4"/>
<path id="Ellipse 2" d="M258.146 154.565C253.442 146.44 243.02 143.634 235.105 148.685C192.104 176.13 154.824 211.736 125.406 253.546C92.7237 299.996 70.5249 352.992 60.3464 408.868C50.1679 464.744 52.2527 522.164 66.4565 577.155C79.2416 626.653 101.571 673.118 132.132 713.963C137.757 721.48 148.5 722.53 155.766 716.585L167.321 707.131C174.588 701.186 175.621 690.499 170.043 682.947C143.945 647.613 124.843 607.551 113.831 564.918C101.4 516.792 99.5756 466.538 108.484 417.637C117.392 368.736 136.82 322.354 165.423 281.702C190.761 245.691 222.763 214.938 259.644 191.077C267.527 185.977 270.328 175.612 265.624 167.487L258.146 154.565Z" fill="url(#paint0_linear_9_2)"/>
<path id="Ellipse 3" d="M566.371 123.964C569.385 115.072 564.628 105.383 555.614 102.758C511.72 89.9735 465.883 84.9542 420.176 87.9717C374.47 90.9892 329.691 101.991 287.858 120.435C279.267 124.223 275.826 134.453 279.982 142.872L286.592 156.258C290.748 164.677 300.927 168.09 309.541 164.356C345.594 148.726 384.106 139.389 423.4 136.795C462.694 134.201 502.098 138.394 539.893 149.148C548.924 151.718 558.565 146.996 561.579 138.104L566.371 123.964Z" fill="url(#paint1_linear_9_2)"/>
<path id="Ellipse 4" d="M740.231 246.627C747.598 240.807 748.879 230.089 742.744 222.981C707.723 182.408 664.75 149.445 616.487 126.135C608.032 122.052 598.013 126.066 594.3 134.69L588.396 148.402C584.683 157.026 588.685 166.988 597.114 171.123C637.943 191.155 674.385 219.108 704.313 253.351C710.492 260.42 721.151 261.704 728.518 255.883L740.231 246.627Z" fill="url(#paint2_linear_9_2)"/>
<path id="Ellipse 5" d="M819.868 450.005C829.228 449.276 836.264 441.089 835.13 431.769C828.547 377.673 810.756 325.539 782.894 278.704C778.094 270.635 767.522 268.458 759.668 273.604L747.181 281.785C739.327 286.931 737.172 297.449 741.922 305.547C765.329 345.453 780.424 389.684 786.296 435.574C787.487 444.887 795.623 451.893 804.984 451.164L819.868 450.005Z" fill="#00B707"/>
<circle id="Ellipse 7" cx="796.5" cy="368.62" r="41.5" fill="#00B707"/>
<circle id="Ellipse 8" cx="796.5" cy="368.62" r="30.5" fill="white"/>
<circle id="Ellipse 9" cx="796.5" cy="368.62" r="17.5" fill="#1AB900"/>
<path id="Excellent" d="M354.33 634.535L352.395 644.21H368.235L367.47 648.035H351.63L349.605 658.205H368.01L367.245 662.12H344.34L350.64 630.62H372.87L372.105 634.535H354.33ZM386.379 650.105L393.309 662.12H388.719L383.589 652.94L374.859 662.12H369.819L381.834 649.79L375.264 638.27H379.764L384.624 646.91L392.904 638.27H397.809L386.379 650.105ZM408.707 662.39C406.427 662.39 404.432 661.97 402.722 661.13C401.012 660.26 399.692 659.06 398.762 657.53C397.832 655.97 397.367 654.155 397.367 652.085C397.367 649.415 397.967 647.015 399.167 644.885C400.367 642.755 402.032 641.09 404.162 639.89C406.292 638.66 408.707 638.045 411.407 638.045C416.117 638.045 419.387 639.77 421.217 643.22L417.572 645.245C416.312 642.965 414.152 641.825 411.092 641.825C409.322 641.825 407.717 642.26 406.277 643.13C404.867 643.97 403.757 645.155 402.947 646.685C402.137 648.215 401.732 649.955 401.732 651.905C401.732 654.005 402.347 655.655 403.577 656.855C404.837 658.025 406.607 658.61 408.887 658.61C410.327 658.61 411.662 658.325 412.892 657.755C414.152 657.185 415.187 656.345 415.997 655.235L419.147 657.485C418.037 659.015 416.552 660.215 414.692 661.085C412.832 661.955 410.837 662.39 408.707 662.39ZM426.954 651.545V651.815C426.954 654.035 427.584 655.73 428.844 656.9C430.104 658.04 431.994 658.61 434.514 658.61C435.984 658.61 437.364 658.37 438.654 657.89C439.944 657.38 441.024 656.705 441.894 655.865L443.739 658.97C442.569 660.05 441.144 660.89 439.464 661.49C437.784 662.09 436.014 662.39 434.154 662.39C431.814 662.39 429.789 661.97 428.079 661.13C426.369 660.29 425.049 659.09 424.119 657.53C423.189 655.97 422.724 654.14 422.724 652.04C422.724 649.37 423.294 646.97 424.434 644.84C425.604 642.71 427.209 641.045 429.249 639.845C431.319 638.645 433.629 638.045 436.179 638.045C439.419 638.045 441.999 638.975 443.919 640.835C445.869 642.665 446.844 645.17 446.844 648.35C446.844 649.31 446.739 650.375 446.529 651.545H426.954ZM435.999 641.645C433.869 641.645 432.039 642.245 430.509 643.445C428.979 644.645 427.944 646.295 427.404 648.395H442.794C442.914 646.265 442.344 644.615 441.084 643.445C439.854 642.245 438.159 641.645 435.999 641.645ZM456.938 628.73H461.258L454.598 662.12H450.278L456.938 628.73ZM469.507 628.73H473.827L467.167 662.12H462.847L469.507 628.73ZM479.6 651.545V651.815C479.6 654.035 480.23 655.73 481.49 656.9C482.75 658.04 484.64 658.61 487.16 658.61C488.63 658.61 490.01 658.37 491.3 657.89C492.59 657.38 493.67 656.705 494.54 655.865L496.385 658.97C495.215 660.05 493.79 660.89 492.11 661.49C490.43 662.09 488.66 662.39 486.8 662.39C484.46 662.39 482.435 661.97 480.725 661.13C479.015 660.29 477.695 659.09 476.765 657.53C475.835 655.97 475.37 654.14 475.37 652.04C475.37 649.37 475.94 646.97 477.08 644.84C478.25 642.71 479.855 641.045 481.895 639.845C483.965 638.645 486.275 638.045 488.825 638.045C492.065 638.045 494.645 638.975 496.565 640.835C498.515 642.665 499.49 645.17 499.49 648.35C499.49 649.31 499.385 650.375 499.175 651.545H479.6ZM488.645 641.645C486.515 641.645 484.685 642.245 483.155 643.445C481.625 644.645 480.59 646.295 480.05 648.395H495.44C495.56 646.265 494.99 644.615 493.73 643.445C492.5 642.245 490.805 641.645 488.645 641.645ZM519.845 638.045C522.575 638.045 524.69 638.735 526.19 640.115C527.72 641.495 528.485 643.445 528.485 645.965C528.485 646.835 528.395 647.765 528.215 648.755L525.56 662.12H521.24L523.895 648.755C524.045 647.945 524.12 647.285 524.12 646.775C524.12 645.215 523.655 644.015 522.725 643.175C521.795 642.335 520.415 641.915 518.585 641.915C516.245 641.915 514.31 642.56 512.78 643.85C511.28 645.11 510.275 647 509.765 649.52L507.245 662.12H502.925L507.65 638.27H511.79L511.205 641.33C513.365 639.14 516.245 638.045 519.845 638.045ZM539.945 654.515C539.855 654.965 539.81 655.385 539.81 655.775C539.81 656.735 540.065 657.47 540.575 657.98C541.115 658.49 541.91 658.745 542.96 658.745C544.22 658.745 545.36 658.37 546.38 657.62L547.28 660.905C545.84 661.895 543.995 662.39 541.745 662.39C539.855 662.39 538.325 661.865 537.155 660.815C536.015 659.735 535.445 658.265 535.445 656.405C535.445 655.775 535.505 655.175 535.625 654.605L538.19 641.825H534.14L534.815 638.27H538.91L539.945 633.05H544.265L543.23 638.27H550.07L549.35 641.825H542.51L539.945 654.515Z" fill="#00B707"/>
<path id="750" d="M425.32 561.12V566.34L409 603.12H400.66L416.44 567.72H399.94V574.86H392.68V561.12H425.32ZM442.229 577.38C448.149 577.38 452.529 578.54 455.369 580.86C458.209 583.14 459.629 586.26 459.629 590.22C459.629 592.74 459.009 595.02 457.769 597.06C456.529 599.1 454.669 600.72 452.189 601.92C449.709 603.12 446.649 603.72 443.009 603.72C440.009 603.72 437.109 603.3 434.309 602.46C431.509 601.58 429.149 600.38 427.229 598.86L430.529 592.8C432.089 594.08 433.949 595.1 436.109 595.86C438.309 596.58 440.569 596.94 442.889 596.94C445.649 596.94 447.809 596.38 449.369 595.26C450.969 594.1 451.769 592.52 451.769 590.52C451.769 588.36 450.909 586.74 449.189 585.66C447.509 584.54 444.609 583.98 440.489 583.98H430.349L432.509 561.12H457.169V567.66H439.109L438.209 577.38H442.229ZM481.648 603.72C478.288 603.72 475.288 602.88 472.648 601.2C470.008 599.48 467.928 597 466.408 593.76C464.888 590.48 464.128 586.6 464.128 582.12C464.128 577.64 464.888 573.78 466.408 570.54C467.928 567.26 470.008 564.78 472.648 563.1C475.288 561.38 478.288 560.52 481.648 560.52C485.008 560.52 488.008 561.38 490.648 563.1C493.328 564.78 495.428 567.26 496.948 570.54C498.468 573.78 499.228 577.64 499.228 582.12C499.228 586.6 498.468 590.48 496.948 593.76C495.428 597 493.328 599.48 490.648 601.2C488.008 602.88 485.008 603.72 481.648 603.72ZM481.648 596.94C484.648 596.94 487.008 595.7 488.728 593.22C490.488 590.74 491.368 587.04 491.368 582.12C491.368 577.2 490.488 573.5 488.728 571.02C487.008 568.54 484.648 567.3 481.648 567.3C478.688 567.3 476.328 568.54 474.568 571.02C472.848 573.5 471.988 577.2 471.988 582.12C471.988 587.04 472.848 590.74 474.568 593.22C476.328 595.7 478.688 596.94 481.648 596.94Z" fill="#3A3A3A"/>
<path id="900" d="M864.935 242.046C866.928 246.413 867.106 250.417 865.47 254.058C863.849 257.73 860.49 260.728 855.396 263.054C851.818 264.687 848.457 265.433 845.315 265.291C842.203 265.136 839.44 264.18 837.026 262.424C834.657 260.684 832.766 258.268 831.354 255.175C830.607 253.537 830.068 251.915 829.737 250.307C829.45 248.716 829.398 247.237 829.581 245.871L835.035 246.02C834.724 248.067 835.129 250.319 836.25 252.776C837.648 255.838 839.681 257.805 842.35 258.675C845.019 259.545 848.128 259.171 851.676 257.552L851.721 257.531C850.2 257.089 848.82 256.272 847.579 255.079C846.369 253.873 845.349 252.36 844.518 250.541C843.563 248.448 843.099 246.388 843.127 244.36C843.184 242.319 843.741 240.489 844.798 238.871C845.855 237.253 847.354 236.001 849.294 235.115C851.356 234.174 853.396 233.866 855.413 234.191C857.461 234.502 859.31 235.343 860.962 236.715C862.614 238.086 863.938 239.863 864.935 242.046ZM849.677 249.56C850.549 251.47 851.77 252.782 853.341 253.494C854.926 254.236 856.506 254.247 858.083 253.528C859.63 252.822 860.633 251.649 861.094 250.01C861.599 248.387 861.381 246.545 860.44 244.482C859.596 242.633 858.411 241.36 856.884 240.664C855.388 239.955 853.821 239.974 852.183 240.721C850.515 241.483 849.459 242.661 849.015 244.256C848.57 245.851 848.791 247.619 849.677 249.56ZM846.363 288.059C845.201 285.512 844.799 282.947 845.16 280.364C845.55 277.768 846.71 275.333 848.641 273.059C850.601 270.772 853.28 268.853 856.676 267.303C860.072 265.753 863.262 264.994 866.244 265.025C869.256 265.042 871.856 265.761 874.043 267.181C876.261 268.587 877.951 270.564 879.113 273.111C880.276 275.659 880.662 278.23 880.271 280.827C879.925 283.44 878.772 285.89 876.811 288.177C874.881 290.451 872.218 292.363 868.821 293.913C865.425 295.463 862.221 296.229 859.208 296.212C856.226 296.181 853.619 295.447 851.388 294.01C849.201 292.59 847.526 290.606 846.363 288.059ZM851.503 285.713C852.541 287.988 854.298 289.348 856.773 289.793C859.262 290.27 862.372 289.656 866.102 287.954C869.831 286.252 872.332 284.304 873.603 282.112C874.888 279.95 875.011 277.732 873.973 275.457C872.949 273.213 871.192 271.853 868.703 271.377C866.228 270.931 863.126 271.56 859.396 273.262C855.666 274.964 853.158 276.897 851.874 279.059C850.602 281.251 850.479 283.469 851.503 285.713ZM860.332 318.665C859.17 316.117 858.768 313.552 859.129 310.97C859.519 308.373 860.679 305.938 862.61 303.665C864.57 301.378 867.249 299.459 870.645 297.909C874.041 296.359 877.231 295.599 880.213 295.63C883.225 295.648 885.825 296.366 888.012 297.787C890.23 299.193 891.92 301.17 893.082 303.717C894.245 306.264 894.631 308.836 894.241 311.432C893.894 314.045 892.741 316.496 890.78 318.783C888.85 321.056 886.187 322.968 882.79 324.518C879.394 326.068 876.19 326.835 873.177 326.817C870.195 326.786 867.588 326.052 865.357 324.616C863.17 323.195 861.495 321.212 860.332 318.665ZM865.472 316.319C866.51 318.593 868.267 319.953 870.742 320.399C873.231 320.875 876.341 320.262 880.071 318.559C883.8 316.857 886.301 314.91 887.572 312.717C888.857 310.555 888.98 308.337 887.942 306.063C886.918 303.819 885.162 302.459 882.672 301.983C880.197 301.537 877.095 302.165 873.365 303.867C869.635 305.57 867.128 307.502 865.843 309.664C864.571 311.856 864.448 314.075 865.472 316.319Z" fill="#1AB900"/>
<path id="750_2" d="M676.782 60.363L674.464 64.0437L646.621 82.7291L640.74 79.0249L667.589 61.0727L655.955 53.7443L652.784 58.7787L647.665 55.5542L653.767 45.866L676.782 60.363ZM681.483 79.3382C685.657 81.9676 688.231 84.7309 689.203 87.6281C690.193 90.4971 689.808 93.3278 688.049 96.12C686.93 97.8969 685.48 99.2291 683.7 100.117C681.919 101.004 679.888 101.321 677.607 101.065C675.325 100.81 672.901 99.8739 670.334 98.2572C668.219 96.9248 666.361 95.3406 664.759 93.5047C663.176 91.6406 662.045 89.7463 661.366 87.8218L666.385 85.0145C666.916 86.6099 667.775 88.1552 668.96 89.6505C670.192 91.1353 671.625 92.3929 673.261 93.4233C675.207 94.6491 676.979 95.2136 678.576 95.1168C680.22 95.0095 681.486 94.2507 682.374 92.8405C683.333 91.3175 683.446 89.7933 682.713 88.2678C682.026 86.7319 680.23 85.049 677.325 83.2191L670.175 78.7155L681.851 63.5561L699.239 74.5087L696.335 79.1201L683.6 71.0988L678.649 77.5528L681.483 79.3382ZM697.579 115.419C695.21 113.926 693.468 112.002 692.352 109.644C691.255 107.259 690.89 104.587 691.257 101.627C691.642 98.6391 692.829 95.5657 694.819 92.4069C696.809 89.248 699.059 86.8638 701.57 85.2544C704.099 83.6167 706.667 82.7919 709.274 82.7798C711.9 82.7396 714.397 83.4656 716.766 84.958C719.135 86.4503 720.869 88.3891 721.966 90.7745C723.11 93.1494 723.489 95.8308 723.104 98.8186C722.737 101.778 721.558 104.838 719.568 107.996C717.579 111.155 715.319 113.554 712.791 115.191C710.28 116.801 707.698 117.617 705.044 117.639C702.437 117.651 699.948 116.911 697.579 115.419ZM700.59 110.638C702.706 111.97 704.92 112.144 707.235 111.16C709.577 110.193 711.841 107.975 714.026 104.505C716.211 101.036 717.234 98.0365 717.095 95.5062C716.984 92.9936 715.87 91.0711 713.755 89.7386C711.668 88.4239 709.453 88.2501 707.11 89.2171C704.796 90.2018 702.546 92.4287 700.361 95.8979C698.176 99.367 697.139 102.358 697.25 104.87C697.39 107.401 698.503 109.323 700.59 110.638Z" fill="#FF6B00"/>
<path id="650" d="M276.388 48.0614C278.587 47.3877 280.695 47.2126 282.712 47.536C284.718 47.8276 286.455 48.6029 287.921 49.8619C289.388 51.1209 290.434 52.7703 291.059 54.81C291.722 56.9772 291.767 59.0555 291.191 61.0448C290.605 63.0022 289.525 64.7103 287.95 66.169C286.374 67.6277 284.44 68.7086 282.145 69.4117C277.555 70.8178 273.546 70.4772 270.118 68.3899C266.721 66.2929 264.203 62.5673 262.562 57.2129C261.41 53.4521 261.114 50.0391 261.674 46.974C262.224 43.8769 263.517 41.2672 265.551 39.1449C267.607 36.981 270.261 35.401 273.511 34.405C275.232 33.8777 276.901 33.5759 278.516 33.4994C280.153 33.3813 281.637 33.5019 282.967 33.8613L282.108 39.2494C280.118 38.6736 277.833 38.7811 275.251 39.572C272.032 40.5582 269.817 42.3176 268.606 44.8502C267.395 47.3828 267.36 50.5135 268.503 54.2425L268.517 54.2903C269.154 52.8402 270.149 51.594 271.503 50.5516C272.848 49.4774 274.476 48.6473 276.388 48.0614ZM280.316 64.6379C282.26 64.0423 283.682 63.049 284.58 61.6581C285.469 60.2353 285.65 58.6634 285.123 56.9423C284.586 55.1894 283.555 53.9886 282.032 53.3397C280.508 52.6909 278.727 52.679 276.687 53.3039C274.679 53.919 273.204 54.9637 272.261 56.4379C271.35 57.9024 271.148 59.4632 271.656 61.1205C272.154 62.7459 273.174 63.9149 274.718 64.6275C276.283 65.2984 278.149 65.3019 280.316 64.6379ZM301.672 40.4721C306.389 39.027 310.162 38.882 312.991 40.0372C315.81 41.1606 317.703 43.2999 318.67 46.4552C319.285 48.463 319.348 50.431 318.858 52.3592C318.368 54.2873 317.281 56.0321 315.598 57.5937C313.915 59.1552 311.623 60.3802 308.723 61.2688C306.333 62.0011 303.92 62.3744 301.484 62.3886C299.038 62.371 296.864 61.9909 294.964 61.2485L296.114 55.6145C297.669 56.2536 299.4 56.6122 301.307 56.6905C303.235 56.7271 305.124 56.4623 306.972 55.8959C309.171 55.2222 310.756 54.2487 311.725 52.9755C312.717 51.6607 312.969 50.2065 312.481 48.6129C311.953 46.8919 310.873 45.811 309.238 45.3704C307.626 44.8881 305.179 45.1498 301.896 46.1556L293.817 48.6309L289.958 29.8893L309.606 23.8695L311.203 29.0804L296.813 33.489L298.469 41.4534L301.672 40.4721ZM339.51 51.8366C336.833 52.6568 334.237 52.7198 331.724 52.0257C329.2 51.2997 326.938 49.8314 324.936 47.6209C322.924 45.3785 321.371 42.4726 320.277 38.903C319.184 35.3334 318.847 32.0724 319.267 29.1197C319.678 26.1353 320.73 23.6515 322.423 21.6685C324.107 19.6536 326.287 18.236 328.964 17.4158C331.641 16.5956 334.242 16.5485 336.765 17.2745C339.31 17.9588 341.589 19.4222 343.601 21.6646C345.603 23.8751 347.151 26.7651 348.244 30.3347C349.338 33.9042 349.68 37.1813 349.269 40.1657C348.849 43.1184 347.781 45.607 346.066 47.6317C344.372 49.6147 342.187 51.0163 339.51 51.8366ZM337.855 46.4344C340.245 45.7021 341.823 44.138 342.588 41.7421C343.385 39.3364 343.183 36.1735 341.982 32.2534C340.781 28.3333 339.176 25.6 337.169 24.0536C335.193 22.4975 333.01 22.0856 330.619 22.8179C328.261 23.5405 326.683 25.1046 325.886 27.5102C325.121 29.9061 325.339 33.0641 326.54 36.9843C327.741 40.9044 329.33 43.6426 331.305 45.1987C333.313 46.7451 335.496 47.157 337.855 46.4344Z" fill="#7000FF"/>
<path id="300" d="M61.4 731.464C60.2535 728.415 60.083 725.719 60.8882 723.378C61.6935 721.037 63.2919 719.239 65.6835 717.986C67.4845 717.042 69.363 716.641 71.3189 716.783C73.2747 716.925 75.1829 717.694 77.0434 719.09C78.8589 720.471 80.4629 722.491 81.8553 725.148C83.0157 727.363 83.8274 729.666 84.2904 732.057C84.7084 734.435 84.7355 736.641 84.3717 738.676L78.599 738.54C78.9559 736.923 78.997 735.17 78.7225 733.282C78.403 731.379 77.7946 729.572 76.8972 727.859C75.8297 725.822 74.5808 724.444 73.1507 723.726C71.6756 722.994 70.2147 723.007 68.768 723.765C67.3213 724.523 66.4933 725.672 66.284 727.211C66.0298 728.737 66.4983 730.637 67.6897 732.91L69.175 735.744L65.2334 737.81L53.1729 735.155L60.553 749.238L55.7257 751.768L44.6555 730.642L48.5086 728.623L61.4 731.464ZM66.6767 696.183C67.9763 698.663 68.5167 701.202 68.2978 703.801C68.0493 706.415 67.0233 708.909 65.2197 711.284C63.3866 713.675 60.8166 715.737 57.5098 717.47C54.203 719.202 51.0599 720.134 48.0804 720.266C45.0714 720.412 42.4363 719.836 40.1751 718.538C37.8844 717.254 36.0892 715.372 34.7896 712.892C33.4899 710.412 32.9643 707.865 33.2128 705.251C33.4162 702.623 34.4345 700.114 36.2676 697.723C38.0712 695.348 40.6264 693.294 43.9332 691.561C47.2401 689.828 50.398 688.889 53.4069 688.742C56.3864 688.611 59.0292 689.201 61.3354 690.514C63.5966 691.813 65.3771 693.703 66.6767 696.183ZM61.6722 698.805C60.5118 696.591 58.6837 695.328 56.1878 695.018C53.6765 694.678 50.6051 695.46 46.9735 697.363C43.3419 699.266 40.9512 701.347 39.8014 703.605C38.6361 705.834 38.6337 708.055 39.7941 710.27C40.939 712.455 42.7671 713.717 45.2784 714.057C47.7743 714.367 50.838 713.571 54.4696 711.668C58.1012 709.765 60.4996 707.699 61.6649 705.47C62.8147 703.212 62.8171 700.99 61.6722 698.805ZM51.0613 666.384C52.3609 668.864 52.9013 671.403 52.6824 674.002C52.4339 676.616 51.4079 679.11 49.6043 681.485C47.7712 683.876 45.2012 685.938 41.8944 687.67C38.5876 689.403 35.4445 690.335 32.465 690.467C29.456 690.613 26.8209 690.037 24.5597 688.739C22.269 687.455 20.4738 685.573 19.1742 683.093C17.8745 680.613 17.3489 678.066 17.5974 675.452C17.8008 672.824 18.8191 670.315 20.6522 667.924C22.4558 665.549 25.011 663.495 28.3178 661.762C31.6246 660.029 34.7825 659.09 37.7915 658.943C40.771 658.812 43.4138 659.402 45.72 660.715C47.9812 662.014 49.7616 663.904 51.0613 666.384ZM46.0568 669.006C44.8964 666.792 43.0683 665.529 40.5724 665.219C38.0611 664.879 34.9896 665.661 31.3581 667.564C27.7265 669.467 25.3358 671.548 24.186 673.806C23.0207 676.035 23.0183 678.256 24.1787 680.471C25.3236 682.656 27.1517 683.918 29.663 684.258C32.1589 684.568 35.2226 683.772 38.8542 681.869C42.4858 679.966 44.8842 677.9 46.0495 675.671C47.1993 673.413 47.2017 671.191 46.0568 669.006Z" fill="#7000FF"/>
</g>
<g id="pointer">
<rect id="point" x="440" y="155" width="15" height="388" rx="7.5" fill="url(#paint3_linear_9_2)"/>
<rect id="point_2" x="440" y="410" width="15" height="388" rx="7.5" fill="#A37F00" fill-opacity="0.01"/>
<g id="Ellipse 10" filter="url(#filter1_d_9_2)">
<ellipse cx="447.5" cy="476.669" rx="34.5" ry="36.0382" fill="white"/>
</g>
</g>
</g>
<defs>
<filter id="filter0_d_9_2" x="110" y="146.12" width="673" height="673" filterUnits="userSpaceOnUse" color-interpolation-filters="sRGB">
<feFlood flood-opacity="0" result="BackgroundImageFix"/>
<feColorMatrix in="SourceAlpha" type="matrix" values="0 0 0 0 0 0 0 0 0 0 0 0 0 0 0 0 0 0 127 0" result="hardAlpha"/>
<feOffset dy="4"/>
<feGaussianBlur stdDeviation="19.5"/>
<feComposite in2="hardAlpha" operator="out"/>
<feColorMatrix type="matrix" values="0 0 0 0 0.196667 0 0 0 0 0.196667 0 0 0 0 0.196667 0 0 0 0.25 0"/>
<feBlend mode="normal" in2="BackgroundImageFix" result="effect1_dropShadow_9_2"/>
<feBlend mode="normal" in="SourceGraphic" in2="effect1_dropShadow_9_2" result="shape"/>
</filter>
<filter id="filter1_d_9_2" x="399" y="430.631" width="97" height="100.076" filterUnits="userSpaceOnUse" color-interpolation-filters="sRGB">
<feFlood flood-opacity="0" result="BackgroundImageFix"/>
<feColorMatrix in="SourceAlpha" type="matrix" values="0 0 0 0 0 0 0 0 0 0 0 0 0 0 0 0 0 0 127 0" result="hardAlpha"/>
<feOffset dy="4"/>
<feGaussianBlur stdDeviation="7"/>
<feComposite in2="hardAlpha" operator="out"/>
<feColorMatrix type="matrix" values="0 0 0 0 0.388333 0 0 0 0 0.388333 0 0 0 0 0.388333 0 0 0 0.25 0"/>
<feBlend mode="normal" in2="BackgroundImageFix" result="effect1_dropShadow_9_2"/>
<feBlend mode="normal" in="SourceGraphic" in2="effect1_dropShadow_9_2" result="shape"/>
</filter>
<linearGradient id="paint0_linear_9_2" x1="446" y1="87.1202" x2="446" y2="957.62" gradientUnits="userSpaceOnUse">
<stop stop-color="#C50000"/>
<stop offset="1" stop-color="#BD00FF"/>
</linearGradient>
<linearGradient id="paint1_linear_9_2" x1="392" y1="52.6202" x2="1130.5" y2="252.12" gradientUnits="userSpaceOnUse">
<stop stop-color="#FF6B00"/>
<stop offset="0.378125" stop-color="#00FFB3"/>
</linearGradient>
<linearGradient id="paint2_linear_9_2" x1="446" y1="87.1202" x2="838" y2="229.62" gradientUnits="userSpaceOnUse">
<stop stop-color="#FF9A02"/>
<stop offset="1" stop-color="#1AB900"/>
</linearGradient>
<linearGradient id="paint3_linear_9_2" x1="447.5" y1="155" x2="447.5" y2="543" gradientUnits="userSpaceOnUse">
<stop stop-color="#A37F00"/>
<stop offset="0.505208" stop-color="#7000FF"/>
<stop offset="1" stop-color="#F400F9"/>
</linearGradient>
</defs>
</svg>
