<svg width="910" height="872" viewBox="0 0 910 872" fill="none" xmlns="http://www.w3.org/2000/svg">
<g id="score-meter">
<g id="meter">
<path id="Ellipse 11" d="M807 479.5C807 678.599 645.599 840 446.5 840C247.401 840 85.9999 678.599 85.9999 479.5C85.9999 280.401 247.401 119 446.5 119C645.599 119 807 280.401 807 479.5Z" fill="#EDEDED"/>
<path id="Subtract" fill-rule="evenodd" clip-rule="evenodd" d="M799.91 551C804.56 527.89 807 503.98 807 479.5C807 280.401 645.599 119 446.5 119C247.401 119 85.9999 280.401 85.9999 479.5C85.9999 503.98 88.4399 527.89 93.09 551H799.91Z" fill="#C1D6E9"/>
<g id="Ellipse 1" filter="url(#filter0_d_8_59)">
<path d="M744 479.5C744 643.805 610.805 777 446.5 777C282.195 777 149 643.805 149 479.5C149 315.195 282.195 182 446.5 182C610.805 182 744 315.195 744 479.5Z" fill="white"/>
</g>
<circle id="Ellipse 6" cx="446.5" cy="479.5" r="261.5" stroke="#7000FF" stroke-width="4"/>
<path id="Ellipse 2" d="M258.146 155.445C253.442 147.319 243.02 144.514 235.105 149.565C192.104 177.01 154.824 212.616 125.406 254.426C92.7237 300.876 70.5249 353.872 60.3464 409.748C50.1679 465.624 52.2527 523.044 66.4565 578.035C79.2416 627.532 101.571 673.997 132.132 714.843C137.757 722.36 148.5 723.41 155.766 717.465L167.321 708.011C174.587 702.065 175.621 691.379 170.043 683.827C143.945 648.493 124.843 608.431 113.831 565.798C101.4 517.671 99.5755 467.418 108.484 418.517C117.392 369.615 136.82 323.234 165.423 282.582C190.761 246.571 222.763 215.818 259.644 191.957C267.527 186.857 270.328 176.492 265.624 168.366L258.146 155.445Z" fill="url(#paint0_linear_8_59)"/>
<path id="Ellipse 3" d="M566.371 124.844C569.385 115.952 564.628 106.263 555.614 103.637C511.72 90.8533 465.883 85.834 420.176 88.8515C374.47 91.869 329.691 102.871 287.858 121.315C279.267 125.102 275.826 135.333 279.982 143.751L286.592 157.138C290.748 165.557 300.927 168.97 309.541 165.236C345.594 149.606 384.106 140.269 423.4 137.675C462.694 135.08 502.098 139.273 539.893 150.028C548.924 152.598 558.565 147.875 561.579 138.983L566.371 124.844Z" fill="url(#paint1_linear_8_59)"/>
<path id="Ellipse 4" d="M740.231 247.507C747.598 241.686 748.879 230.969 742.744 223.861C707.723 183.288 664.75 150.325 616.487 127.015C608.032 122.932 598.013 126.946 594.3 135.57L588.396 149.282C584.683 157.905 588.685 167.868 597.114 172.003C637.943 192.035 674.385 219.988 704.313 254.23C710.492 261.3 721.151 262.584 728.518 256.763L740.231 247.507Z" fill="url(#paint2_linear_8_59)"/>
<path id="Ellipse 5" d="M819.868 450.885C829.228 450.156 836.264 441.969 835.13 432.649C828.547 378.553 810.756 326.419 782.894 279.584C778.094 271.515 767.522 269.338 759.668 274.483L747.181 282.665C739.327 287.811 737.172 298.328 741.922 306.427C765.329 346.333 780.424 390.564 786.296 436.454C787.487 445.767 795.623 452.773 804.984 452.044L819.868 450.885Z" fill="#00B707"/>
<circle id="Ellipse 7" cx="796.5" cy="369.5" r="41.5" fill="#00B707"/>
<circle id="Ellipse 8" cx="796.5" cy="369.5" r="30.5" fill="white"/>
<circle id="Ellipse 9" cx="796.5" cy="369.5" r="17.5" fill="#1AB900"/>
<path id="Excellent" d="M354.33 635.415L352.395 645.09H368.235L367.47 648.915H351.63L349.605 659.085H368.01L367.245 663H344.34L350.64 631.5H372.87L372.105 635.415H354.33ZM386.379 650.985L393.309 663H388.719L383.589 653.82L374.859 663H369.819L381.834 650.67L375.264 639.15H379.764L384.624 647.79L392.904 639.15H397.809L386.379 650.985ZM408.707 663.27C406.427 663.27 404.432 662.85 402.722 662.01C401.012 661.14 399.692 659.94 398.762 658.41C397.832 656.85 397.367 655.035 397.367 652.965C397.367 650.295 397.967 647.895 399.167 645.765C400.367 643.635 402.032 641.97 404.162 640.77C406.292 639.54 408.707 638.925 411.407 638.925C416.117 638.925 419.387 640.65 421.217 644.1L417.572 646.125C416.312 643.845 414.152 642.705 411.092 642.705C409.322 642.705 407.717 643.14 406.277 644.01C404.867 644.85 403.757 646.035 402.947 647.565C402.137 649.095 401.732 650.835 401.732 652.785C401.732 654.885 402.347 656.535 403.577 657.735C404.837 658.905 406.607 659.49 408.887 659.49C410.327 659.49 411.662 659.205 412.892 658.635C414.152 658.065 415.187 657.225 415.997 656.115L419.147 658.365C418.037 659.895 416.552 661.095 414.692 661.965C412.832 662.835 410.837 663.27 408.707 663.27ZM426.954 652.425V652.695C426.954 654.915 427.584 656.61 428.844 657.78C430.104 658.92 431.994 659.49 434.514 659.49C435.984 659.49 437.364 659.25 438.654 658.77C439.944 658.26 441.024 657.585 441.894 656.745L443.739 659.85C442.569 660.93 441.144 661.77 439.464 662.37C437.784 662.97 436.014 663.27 434.154 663.27C431.814 663.27 429.789 662.85 428.079 662.01C426.369 661.17 425.049 659.97 424.119 658.41C423.189 656.85 422.724 655.02 422.724 652.92C422.724 650.25 423.294 647.85 424.434 645.72C425.604 643.59 427.209 641.925 429.249 640.725C431.319 639.525 433.629 638.925 436.179 638.925C439.419 638.925 441.999 639.855 443.919 641.715C445.869 643.545 446.844 646.05 446.844 649.23C446.844 650.19 446.739 651.255 446.529 652.425H426.954ZM435.999 642.525C433.869 642.525 432.039 643.125 430.509 644.325C428.979 645.525 427.944 647.175 427.404 649.275H442.794C442.914 647.145 442.344 645.495 441.084 644.325C439.854 643.125 438.159 642.525 435.999 642.525ZM456.938 629.61H461.258L454.598 663H450.278L456.938 629.61ZM469.507 629.61H473.827L467.167 663H462.847L469.507 629.61ZM479.6 652.425V652.695C479.6 654.915 480.23 656.61 481.49 657.78C482.75 658.92 484.64 659.49 487.16 659.49C488.63 659.49 490.01 659.25 491.3 658.77C492.59 658.26 493.67 657.585 494.54 656.745L496.385 659.85C495.215 660.93 493.79 661.77 492.11 662.37C490.43 662.97 488.66 663.27 486.8 663.27C484.46 663.27 482.435 662.85 480.725 662.01C479.015 661.17 477.695 659.97 476.765 658.41C475.835 656.85 475.37 655.02 475.37 652.92C475.37 650.25 475.94 647.85 477.08 645.72C478.25 643.59 479.855 641.925 481.895 640.725C483.965 639.525 486.275 638.925 488.825 638.925C492.065 638.925 494.645 639.855 496.565 641.715C498.515 643.545 499.49 646.05 499.49 649.23C499.49 650.19 499.385 651.255 499.175 652.425H479.6ZM488.645 642.525C486.515 642.525 484.685 643.125 483.155 644.325C481.625 645.525 480.59 647.175 480.05 649.275H495.44C495.56 647.145 494.99 645.495 493.73 644.325C492.5 643.125 490.805 642.525 488.645 642.525ZM519.845 638.925C522.575 638.925 524.69 639.615 526.19 640.995C527.72 642.375 528.485 644.325 528.485 646.845C528.485 647.715 528.395 648.645 528.215 649.635L525.56 663H521.24L523.895 649.635C524.045 648.825 524.12 648.165 524.12 647.655C524.12 646.095 523.655 644.895 522.725 644.055C521.795 643.215 520.415 642.795 518.585 642.795C516.245 642.795 514.31 643.44 512.78 644.73C511.28 645.99 510.275 647.88 509.765 650.4L507.245 663H502.925L507.65 639.15H511.79L511.205 642.21C513.365 640.02 516.245 638.925 519.845 638.925ZM539.945 655.395C539.855 655.845 539.81 656.265 539.81 656.655C539.81 657.615 540.065 658.35 540.575 658.86C541.115 659.37 541.91 659.625 542.96 659.625C544.22 659.625 545.36 659.25 546.38 658.5L547.28 661.785C545.84 662.775 543.995 663.27 541.745 663.27C539.855 663.27 538.325 662.745 537.155 661.695C536.015 660.615 535.445 659.145 535.445 657.285C535.445 656.655 535.505 656.055 535.625 655.485L538.19 642.705H534.14L534.815 639.15H538.91L539.945 633.93H544.265L543.23 639.15H550.07L549.35 642.705H542.51L539.945 655.395Z" fill="#00B707"/>
<path id="750" d="M425.32 562V567.22L409 604H400.66L416.44 568.6H399.94V575.74H392.68V562H425.32ZM442.229 578.26C448.149 578.26 452.529 579.42 455.369 581.74C458.209 584.02 459.629 587.14 459.629 591.1C459.629 593.62 459.009 595.9 457.769 597.94C456.529 599.98 454.669 601.6 452.189 602.8C449.709 604 446.649 604.6 443.009 604.6C440.009 604.6 437.109 604.18 434.309 603.34C431.509 602.46 429.149 601.26 427.229 599.74L430.529 593.68C432.089 594.96 433.949 595.98 436.109 596.74C438.309 597.46 440.569 597.82 442.889 597.82C445.649 597.82 447.809 597.26 449.369 596.14C450.969 594.98 451.769 593.4 451.769 591.4C451.769 589.24 450.909 587.62 449.189 586.54C447.509 585.42 444.609 584.86 440.489 584.86H430.349L432.509 562H457.169V568.54H439.109L438.209 578.26H442.229ZM481.648 604.6C478.288 604.6 475.288 603.76 472.648 602.08C470.008 600.36 467.928 597.88 466.408 594.64C464.888 591.36 464.128 587.48 464.128 583C464.128 578.52 464.888 574.66 466.408 571.42C467.928 568.14 470.008 565.66 472.648 563.98C475.288 562.26 478.288 561.4 481.648 561.4C485.008 561.4 488.008 562.26 490.648 563.98C493.328 565.66 495.428 568.14 496.948 571.42C498.468 574.66 499.228 578.52 499.228 583C499.228 587.48 498.468 591.36 496.948 594.64C495.428 597.88 493.328 600.36 490.648 602.08C488.008 603.76 485.008 604.6 481.648 604.6ZM481.648 597.82C484.648 597.82 487.008 596.58 488.728 594.1C490.488 591.62 491.368 587.92 491.368 583C491.368 578.08 490.488 574.38 488.728 571.9C487.008 569.42 484.648 568.18 481.648 568.18C478.688 568.18 476.328 569.42 474.568 571.9C472.848 574.38 471.988 578.08 471.988 583C471.988 587.92 472.848 591.62 474.568 594.1C476.328 596.58 478.688 597.82 481.648 597.82Z" fill="#3A3A3A"/>
<path id="700" d="M869.542 256.416L865.585 258.222L832.055 258.576L829.169 252.254L861.466 251.968L855.757 239.459L850.344 241.93L847.832 236.426L858.248 231.671L869.542 256.416ZM844.573 287.207C843.41 284.659 843.009 282.095 843.369 279.512C843.759 276.915 844.92 274.48 846.85 272.207C848.811 269.92 851.489 268.001 854.885 266.451C858.282 264.901 861.471 264.141 864.453 264.172C867.466 264.19 870.065 264.909 872.253 266.329C874.47 267.735 876.16 269.712 877.323 272.259C878.485 274.806 878.871 277.378 878.481 279.974C878.135 282.587 876.981 285.038 875.02 287.325C873.09 289.598 870.427 291.51 867.031 293.06C863.634 294.61 860.43 295.377 857.417 295.359C854.435 295.328 851.828 294.594 849.597 293.158C847.41 291.738 845.735 289.754 844.573 287.207ZM849.713 284.861C850.751 287.135 852.507 288.495 854.982 288.941C857.472 289.417 860.581 288.804 864.311 287.101C868.041 285.399 870.541 283.452 871.812 281.259C873.097 279.097 873.221 276.879 872.183 274.605C871.158 272.361 869.402 271.001 866.913 270.525C864.437 270.079 861.335 270.707 857.605 272.409C853.875 274.112 851.368 276.044 850.083 278.206C848.812 280.399 848.688 282.617 849.713 284.861ZM858.542 317.812C857.379 315.265 856.978 312.7 857.338 310.117C857.728 307.521 858.889 305.086 860.819 302.812C862.78 300.525 865.458 298.606 868.854 297.056C872.251 295.506 875.44 294.747 878.422 294.778C881.435 294.795 884.034 295.514 886.222 296.934C888.439 298.34 890.129 300.317 891.292 302.864C892.454 305.411 892.84 307.983 892.45 310.58C892.104 313.193 890.95 315.643 888.989 317.93C887.059 320.204 884.396 322.115 881 323.666C877.603 325.216 874.399 325.982 871.386 325.965C868.404 325.933 865.797 325.2 863.566 323.763C861.379 322.343 859.704 320.359 858.542 317.812ZM863.682 315.466C864.72 317.74 866.476 319.1 868.951 319.546C871.441 320.022 874.55 319.409 878.28 317.707C882.01 316.004 884.51 314.057 885.781 311.865C887.066 309.703 887.19 307.484 886.152 305.21C885.127 302.966 883.371 301.606 880.882 301.13C878.406 300.684 875.304 301.312 871.574 303.015C867.844 304.717 865.337 306.649 864.052 308.812C862.781 311.004 862.657 313.222 863.682 315.466Z" fill="#1AB900"/>
<path id="680" d="M660.756 66.9847C662.702 68.2106 664.211 69.6928 665.282 71.4314C666.372 73.1419 666.918 74.9635 666.922 76.8962C666.926 78.829 666.359 80.6979 665.222 82.503C664.014 84.4209 662.469 85.8111 660.586 86.6737C658.721 87.5081 656.722 87.8049 654.589 87.5642C652.455 87.3235 650.373 86.5636 648.343 85.2845C644.281 82.7262 641.922 79.4672 641.264 75.5075C640.635 71.5656 641.813 67.2255 644.797 62.4872C646.894 59.1591 649.286 56.7065 651.973 55.1295C654.678 53.5243 657.499 52.7992 660.434 52.9544C663.416 53.0992 666.345 54.0776 669.222 55.8897C670.745 56.8491 672.063 57.9155 673.175 59.0889C674.334 60.2519 675.211 61.4546 675.807 62.6969L671.165 65.5638C670.302 63.681 668.729 62.0201 666.444 60.5811C663.596 58.7867 660.817 58.2576 658.107 58.9936C655.398 59.7296 653.004 61.7475 650.926 65.0474L650.899 65.0898C652.413 64.6251 654.007 64.5654 655.68 64.9105C657.372 65.2273 659.064 65.9188 660.756 66.9847ZM650.765 80.7826C652.485 81.8664 654.165 82.2945 655.806 82.0671C657.464 81.8114 658.772 80.9221 659.732 79.3991C660.709 77.8478 660.946 76.2834 660.443 74.7057C659.939 73.1281 658.785 71.7708 656.98 70.6338C655.203 69.5145 653.449 69.079 651.716 69.3273C650.012 69.5934 648.699 70.4598 647.775 71.9264C646.869 73.3648 646.649 74.9011 647.117 76.5351C647.631 78.1587 648.847 79.5746 650.765 80.7826ZM691.328 90.0241C692.435 91.7064 693.016 93.4115 693.07 95.1395C693.17 96.857 692.714 98.5196 691.701 100.127C690.564 101.932 689.061 103.192 687.193 103.906C685.353 104.638 683.286 104.794 680.99 104.372C678.713 103.922 676.362 102.934 673.936 101.406C671.51 99.8779 669.603 98.184 668.214 96.3241C666.871 94.4538 666.132 92.5308 665.998 90.5552C665.863 88.5796 666.365 86.6892 667.502 84.8842C668.514 83.2765 669.803 82.138 671.367 81.4686C672.949 80.771 674.723 80.5494 676.69 80.8036C675.914 79.4088 675.531 77.9852 675.539 76.5331C675.594 75.0705 676.056 73.6481 676.927 72.2661C677.975 70.6021 679.341 69.4338 681.026 68.7613C682.738 68.1066 684.639 67.9649 686.73 68.3362C688.82 68.7075 690.951 69.5771 693.123 70.9451C695.323 72.3308 697.042 73.8862 698.28 75.6113C699.517 77.3364 700.211 79.1126 700.36 80.9398C700.509 82.7671 700.059 84.5128 699.011 86.1768C698.14 87.5588 697.052 88.5673 695.746 89.2023C694.44 89.8372 692.967 90.1112 691.328 90.0241ZM690.405 75.2603C688.684 74.1766 687.086 73.6816 685.608 73.7754C684.159 73.8869 683.017 74.6054 682.182 75.931C681.383 77.2002 681.237 78.5265 681.744 79.9098C682.298 81.2827 683.435 82.511 685.155 83.5947C686.904 84.6962 688.517 85.2001 689.994 85.1063C691.489 84.9844 692.636 84.2888 693.436 83.0196C694.271 81.694 694.397 80.3359 693.816 78.9452C693.262 77.5723 692.125 76.344 690.405 75.2603ZM676.654 97.0905C678.685 98.3696 680.559 98.9592 682.277 98.8592C683.994 98.7593 685.324 97.9619 686.265 96.4671C687.189 95.0004 687.325 93.471 686.674 91.8787C686.022 90.2864 684.681 88.8507 682.65 87.5715C680.619 86.2924 678.759 85.7117 677.07 85.8294C675.381 85.9471 674.074 86.7393 673.15 88.2059C672.209 89.7008 672.05 91.2354 672.673 92.81C673.296 94.3845 674.623 95.8113 676.654 97.0905ZM702 119.083C699.631 117.591 697.888 115.666 696.773 113.309C695.675 110.924 695.31 108.251 695.678 105.291C696.063 102.304 697.25 99.2302 699.24 96.0713C701.23 92.9124 703.48 90.5282 705.991 88.9188C708.519 87.2811 711.087 86.4563 713.695 86.4442C716.32 86.404 718.818 87.1301 721.187 88.6224C723.556 90.1147 725.289 92.0536 726.387 94.4389C727.53 96.8138 727.91 99.4952 727.525 102.483C727.157 105.443 725.979 108.502 723.989 111.661C721.999 114.82 719.74 117.218 717.212 118.856C714.701 120.465 712.119 121.281 709.465 121.304C706.857 121.316 704.369 120.575 702 119.083ZM705.011 114.302C707.126 115.635 709.341 115.809 711.655 114.824C713.998 113.857 716.262 111.639 718.447 108.17C720.632 104.701 721.655 101.701 721.516 99.1706C721.404 96.658 720.291 94.7355 718.176 93.403C716.088 92.0884 713.874 91.9145 711.531 92.8815C709.217 93.8662 706.967 96.0931 704.782 99.5623C702.597 103.031 701.56 106.022 701.671 108.535C701.811 111.065 702.924 112.988 705.011 114.302Z" fill="#FF6B00"/>
<path id="580" d="M271.699 50.5347C276.416 49.0896 280.189 48.9446 283.018 50.0999C285.838 51.2233 287.731 53.3626 288.697 56.5178C289.313 58.5257 289.375 60.4937 288.885 62.4218C288.395 64.3499 287.309 66.0948 285.626 67.6563C283.943 69.2178 281.651 70.4429 278.751 71.3314C276.36 72.0638 273.947 72.437 271.511 72.4513C269.065 72.4336 266.892 72.0536 264.991 71.3112L266.141 65.6771C267.697 66.3162 269.428 66.6749 271.334 66.7531C273.263 66.7898 275.151 66.5249 277 65.9586C279.199 65.2848 280.783 64.3113 281.753 63.0381C282.745 61.7233 282.996 60.2691 282.508 58.6755C281.981 56.9545 280.9 55.8737 279.266 55.433C277.654 54.9507 275.207 55.2125 271.924 56.2182L263.845 58.6935L259.985 39.9519L279.634 33.9321L281.23 39.143L266.84 43.5517L268.496 51.516L271.699 50.5347ZM311.746 41.4555C313.743 41.7152 315.413 42.3888 316.757 43.476C318.123 44.5217 319.085 45.9528 319.641 47.7695C320.266 49.8092 320.24 51.7698 319.561 53.6511C318.914 55.5227 317.682 57.1901 315.864 58.6535C314.037 60.0849 311.752 61.2206 309.011 62.0603C306.271 62.9 303.742 63.2389 301.426 63.0768C299.133 62.8731 297.194 62.1772 295.61 60.9891C294.026 59.8011 292.921 58.1872 292.296 56.1474C291.739 54.3308 291.718 52.6115 292.232 50.9898C292.737 49.3362 293.727 47.8473 295.204 46.5233C293.641 46.2003 292.313 45.5616 291.218 44.6069C290.146 43.6106 289.371 42.3316 288.892 40.77C288.316 38.8896 288.323 37.092 288.913 35.3772C289.535 33.6526 290.67 32.1198 292.316 30.7788C293.962 29.4378 296.012 28.3914 298.466 27.6395C300.952 26.8779 303.252 26.5915 305.367 26.7803C307.482 26.9691 309.28 27.6035 310.761 28.6836C312.242 29.7637 313.271 31.244 313.847 33.1244C314.326 34.6861 314.379 36.1688 314.007 37.5726C313.636 38.9764 312.882 40.2707 311.746 41.4555ZM299.96 32.5158C298.016 33.1114 296.597 33.9993 295.703 35.1795C294.842 36.3499 294.64 37.6841 295.099 39.182C295.539 40.6162 296.448 41.5927 297.827 42.1115C299.228 42.5886 300.901 42.5293 302.845 41.9337C304.821 41.3283 306.256 40.4355 307.149 39.2554C308.033 38.0433 308.255 36.7202 307.816 35.286C307.357 33.7881 306.411 32.8054 304.978 32.338C303.577 31.8609 301.904 31.9202 299.96 32.5158ZM307.517 57.184C309.812 56.481 311.482 55.4463 312.528 54.0801C313.574 52.7139 313.838 51.1862 313.32 49.497C312.812 47.8397 311.743 46.738 310.111 46.192C308.48 45.646 306.517 45.7245 304.222 46.4275C301.927 47.1306 300.273 48.1603 299.259 49.5168C298.245 50.8733 297.992 52.3802 298.5 54.0375C299.018 55.7266 300.076 56.8491 301.676 57.4049C303.276 57.9607 305.223 57.8871 307.517 57.184ZM340.724 52.3445C338.046 53.1647 335.451 53.2278 332.937 52.5336C330.414 51.8076 328.151 50.3394 326.149 48.1289C324.138 45.8865 322.585 42.9805 321.491 39.4109C320.398 35.8414 320.061 32.5803 320.481 29.6277C320.892 26.6432 321.943 24.1595 323.637 22.1764C325.32 20.1615 327.501 18.7439 330.178 17.9237C332.855 17.1035 335.455 17.0564 337.979 17.7824C340.524 18.4668 342.803 19.9301 344.815 22.1725C346.817 24.383 348.365 27.2731 349.458 30.8426C350.552 34.4122 350.893 37.6892 350.483 40.6737C350.063 43.6263 348.995 46.1149 347.279 48.1396C345.586 50.1227 343.401 51.5243 340.724 52.3445ZM339.069 46.9424C341.459 46.21 343.037 44.6459 343.802 42.25C344.599 39.8444 344.397 36.6815 343.196 32.7613C341.994 28.8412 340.39 26.1079 338.382 24.5616C336.407 23.0054 334.223 22.5935 331.833 23.3259C329.475 24.0484 327.897 25.6126 327.1 28.0182C326.335 30.4141 326.553 33.5721 327.754 37.4922C328.955 41.4124 330.543 44.1505 332.519 45.7067C334.527 47.253 336.71 47.6649 339.069 46.9424Z" fill="#7000FF"/>
<path id="300" d="M61.4 732.344C60.2535 729.295 60.0829 726.599 60.8882 724.258C61.6935 721.917 63.2919 720.119 65.6835 718.866C67.4845 717.922 69.3629 717.521 71.3188 717.663C73.2747 717.805 75.1829 718.573 77.0434 719.969C78.8589 721.351 80.4628 723.371 81.8553 726.028C83.0157 728.242 83.8274 730.546 84.2904 732.937C84.7084 735.315 84.7355 737.521 84.3717 739.556L78.599 739.419C78.9558 737.802 78.997 736.05 78.7225 734.161C78.403 732.259 77.7946 730.452 76.8972 728.739C75.8297 726.702 74.5808 725.324 73.1507 724.606C71.6756 723.874 70.2147 723.886 68.768 724.645C67.3212 725.403 66.4932 726.552 66.284 728.091C66.0298 729.617 66.4983 731.517 67.6896 733.79L69.1749 736.624L65.2333 738.69L53.1729 736.034L60.553 750.118L55.7257 752.648L44.6555 731.522L48.5086 729.503L61.4 732.344ZM66.6767 697.063C67.9763 699.543 68.5167 702.082 68.2978 704.68C68.0493 707.294 67.0233 709.789 65.2197 712.164C63.3866 714.555 60.8166 716.617 57.5098 718.349C54.203 720.082 51.0598 721.014 48.0804 721.146C45.0714 721.292 42.4363 720.716 40.1751 719.417C37.8844 718.134 36.0892 716.252 34.7896 713.772C33.4899 711.292 32.9643 708.745 33.2127 706.131C33.4162 703.503 34.4345 700.994 36.2676 698.603C38.0712 696.228 40.6264 694.174 43.9332 692.441C47.24 690.708 50.3979 689.768 53.4069 689.622C56.3864 689.49 59.0292 690.081 61.3354 691.394C63.5966 692.693 65.377 694.582 66.6767 697.063ZM61.6722 699.685C60.5118 697.471 58.6837 696.208 56.1878 695.898C53.6765 695.558 50.605 696.34 46.9734 698.243C43.3419 700.146 40.9512 702.227 39.8014 704.485C38.6361 706.714 38.6337 708.935 39.7941 711.15C40.939 713.335 42.7671 714.597 45.2784 714.937C47.7743 715.247 50.838 714.451 54.4696 712.548C58.1012 710.645 60.4996 708.579 61.6649 706.35C62.8146 704.092 62.8171 701.87 61.6722 699.685ZM51.0613 667.264C52.3609 669.744 52.9013 672.283 52.6823 674.881C52.4339 677.495 51.4079 679.99 49.6043 682.365C47.7712 684.756 45.2012 686.818 41.8944 688.55C38.5876 690.283 35.4444 691.215 32.465 691.347C29.456 691.493 26.8209 690.917 24.5597 689.618C22.269 688.335 20.4738 686.453 19.1741 683.973C17.8745 681.493 17.3489 678.946 17.5973 676.332C17.8008 673.704 18.8191 671.195 20.6522 668.804C22.4558 666.429 25.011 664.375 28.3178 662.642C31.6246 660.909 34.7825 659.969 37.7915 659.823C40.771 659.691 43.4138 660.282 45.72 661.595C47.9812 662.894 49.7616 664.783 51.0613 667.264ZM46.0568 669.886C44.8964 667.672 43.0682 666.409 40.5724 666.099C38.0611 665.759 34.9896 666.541 31.358 668.444C27.7264 670.347 25.3358 672.428 24.186 674.686C23.0207 676.915 23.0183 679.136 24.1786 681.351C25.3236 683.536 27.1517 684.798 29.663 685.138C32.1588 685.448 35.2226 684.652 38.8542 682.749C42.4857 680.846 44.8842 678.78 46.0494 676.551C47.1992 674.293 47.2017 672.071 46.0568 669.886Z" fill="#7000FF"/>
</g>
<g id="pointer">
<rect id="point" x="439" y="159" width="15" height="321" rx="7.5" fill="url(#paint3_linear_8_59)"/>
<g id="Ellipse 10" filter="url(#filter1_d_8_59)">
<circle cx="446.5" cy="479.5" r="34.5" fill="white"/>
</g>
</g>
</g>
<defs>
<filter id="filter0_d_8_59" x="110" y="147" width="673" height="673" filterUnits="userSpaceOnUse" color-interpolation-filters="sRGB">
<feFlood flood-opacity="0" result="BackgroundImageFix"/>
<feColorMatrix in="SourceAlpha" type="matrix" values="0 0 0 0 0 0 0 0 0 0 0 0 0 0 0 0 0 0 127 0" result="hardAlpha"/>
<feOffset dy="4"/>
<feGaussianBlur stdDeviation="19.5"/>
<feComposite in2="hardAlpha" operator="out"/>
<feColorMatrix type="matrix" values="0 0 0 0 0.196667 0 0 0 0 0.196667 0 0 0 0 0.196667 0 0 0 0.25 0"/>
<feBlend mode="normal" in2="BackgroundImageFix" result="effect1_dropShadow_8_59"/>
<feBlend mode="normal" in="SourceGraphic" in2="effect1_dropShadow_8_59" result="shape"/>
</filter>
<filter id="filter1_d_8_59" x="398" y="435" width="97" height="97" filterUnits="userSpaceOnUse" color-interpolation-filters="sRGB">
<feFlood flood-opacity="0" result="BackgroundImageFix"/>
<feColorMatrix in="SourceAlpha" type="matrix" values="0 0 0 0 0 0 0 0 0 0 0 0 0 0 0 0 0 0 127 0" result="hardAlpha"/>
<feOffset dy="4"/>
<feGaussianBlur stdDeviation="7"/>
<feComposite in2="hardAlpha" operator="out"/>
<feColorMatrix type="matrix" values="0 0 0 0 0.388333 0 0 0 0 0.388333 0 0 0 0 0.388333 0 0 0 0.25 0"/>
<feBlend mode="normal" in2="BackgroundImageFix" result="effect1_dropShadow_8_59"/>
<feBlend mode="normal" in="SourceGraphic" in2="effect1_dropShadow_8_59" result="shape"/>
</filter>
<linearGradient id="paint0_linear_8_59" x1="446" y1="88" x2="446" y2="958.5" gradientUnits="userSpaceOnUse">
<stop stop-color="#C50000"/>
<stop offset="1" stop-color="#BD00FF"/>
</linearGradient>
<linearGradient id="paint1_linear_8_59" x1="392" y1="53.5" x2="1130.5" y2="253" gradientUnits="userSpaceOnUse">
<stop stop-color="#FF6B00"/>
<stop offset="0.378125" stop-color="#00FFB3"/>
</linearGradient>
<linearGradient id="paint2_linear_8_59" x1="446" y1="88" x2="838" y2="230.5" gradientUnits="userSpaceOnUse">
<stop stop-color="#FF9A02"/>
<stop offset="1" stop-color="#1AB900"/>
</linearGradient>
<linearGradient id="paint3_linear_8_59" x1="446.5" y1="159" x2="446.5" y2="480" gradientUnits="userSpaceOnUse">
<stop stop-color="#A37F00"/>
<stop offset="0.505208" stop-color="#7000FF"/>
<stop offset="1" stop-color="#F400F9"/>
</linearGradient>
</defs>
</svg>
